# xmcd
#
# Track frame offsets:
#	150
#	13292
#	38745
#	76295
#	97932
#	116195
#	139422
#	169007
#	194965
#	226730
#	262050
#	289030
#
# Disc length: 4250 seconds
#
# Revision: 16
# Processed by: cddbd v1.5.2PL0 Copyright (c) Steve Scherf et al.
# Submitted via: audiograbber 1.83.01
#
DISCID=ac10980c
DTITLE=Various Artist - 1 Giant Leap
DYEAR=2001
DGENRE=Blues
TTITLE0=Baaba Maal - Dunya Salam
TTITLE1=Maxi Jazz and Robbie Williams - My Culture
TTITLE2=Asha Bhosle, Whiri Mako Black and Michael Stipe - The Way You Dream
TTITLE3=The Mahotella Queens and Ulali - Ma' Africa
TTITLE4=Speech, Ulali and Neneh Cherry - Braided Hair
TTITLE5=Whiri Mako Black - Ta Moko
TTITLE6=Baaba Maal - Bushes
TTITLE7=Michael Franti - Passion
TTITLE8=Eddi Reader, The Mahotella Queens, Pops Mohamed, Revetti Sakalkar and Yey
TTITLE8=e - Daphne
TTITLE9=Duncan and The Mahotella Queens - All Alone (On Eilean Shona)
TTITLE10=Kaolin Thompson, Grant Lee Phillips and Horace Andy - Racing Away
TTITLE11=Eddi Reader - Ghosts
EXTD=YEAR: 2002
EXTT0=
EXTT1=
EXTT2=
EXTT3=
EXTT4=
EXTT5=
EXTT6=
EXTT7=
EXTT8=
EXTT9=
EXTT10=
EXTT11=
PLAYORDER=
